<?xml version="1.0" encoding="UTF-8"?>
<svg version="1.1" xmlns="http://www.w3.org/2000/svg" width="531" height="118">
<path d="M0 0 C18.81 0 37.62 0 57 0 C59.413125 4.723125 61.82625 9.44625 64.3125 14.3125 C69.47813386 24.38601312 74.69659185 34.37766164 80.63598633 44.0246582 C87.66643723 55.6535023 89.84061337 68.62712939 86.875 81.9375 C83.20101104 95.09981826 75.18057079 106.52182118 68 118 C64.8024461 115.0566084 62.72301667 112.11220862 60.6015625 108.328125 C59.96476562 107.20148438 59.32796875 106.07484375 58.671875 104.9140625 C58.33865234 104.31754883 58.00542969 103.72103516 57.66210938 103.10644531 C56.2457943 100.57121465 54.81528802 98.04409327 53.38543701 95.51647949 C52.65235209 94.22040919 51.91997484 92.92393836 51.18829346 91.6270752 C47.85103552 85.71672839 44.43540777 79.85379977 41 74 C35.59955953 64.7795852 30.281398 55.51421368 24.99157715 46.23013306 C19.02607447 35.76294908 12.97800146 25.34604801 6.890625 14.94921875 C6.39369141 14.09634277 5.89675781 13.2434668 5.38476562 12.36474609 C4.50778549 10.86713862 3.62210511 9.37456371 2.72460938 7.88916016 C0 3.32150285 0 3.32150285 0 0 Z " fill="#7901F4" transform="translate(0,0)"/>
<path d="M0 0 C18.81 0 37.62 0 57 0 C61.95 9.57 66.9 19.14 72 29 C69.30261474 31.69738526 68.43892926 32.44173786 65.09375 33.60546875 C64.34996094 33.86650391 63.60617188 34.12753906 62.83984375 34.39648438 C62.06769531 34.65751953 61.29554687 34.91855469 60.5 35.1875 C59.72785156 35.46013672 58.95570312 35.73277344 58.16015625 36.01367188 C52.41523731 38 52.41523731 38 49 38 C49.66 39.65 50.32 41.3 51 43 C48.09728639 44.59124662 45.48002037 45.44614993 42.234375 46.0703125 C41.34492187 46.24433594 40.45546875 46.41835938 39.5390625 46.59765625 C38.61867187 46.77167969 37.69828125 46.94570313 36.75 47.125 C35.81414063 47.30675781 34.87828125 47.48851562 33.9140625 47.67578125 C31.61033115 48.12242304 29.3056957 48.5636328 27 49 C21.3469146 39.94900412 15.94898588 30.78279089 10.6875 21.5 C9.63145792 19.64121095 8.57476219 17.78279634 7.51753235 15.92468262 C6.57129958 14.26100568 5.62677859 12.59635549 4.68237305 10.93164062 C3.59117355 9.03015702 2.45901433 7.15138298 1.28051758 5.30273438 C0 3 0 3 0 0 Z " fill="#4C65FA" transform="translate(0,0)"/>
<path d="M0 0 C1.06089844 0.00902344 2.12179687 0.01804687 3.21484375 0.02734375 C4.15457031 0.03894531 5.09429687 0.05054687 6.0625 0.0625 C7.0525 0.0625 8.0425 0.0625 9.0625 0.0625 C14.0625 0.0625 19.0625 0.0625 24.0625 0.0625 C24.13862856 6.66439418 24.19113283 13.26617494 24.22729492 19.8684082 C24.24237182 22.11389394 24.26283653 24.35935029 24.28881836 26.60473633 C24.32524918 29.83422099 24.34223755 33.06331594 24.35546875 36.29296875 C24.37095261 37.29522995 24.38643646 38.29749115 24.40238953 39.3301239 C24.4045493 48.29545021 24.4045493 48.29545021 21.0625 52.0625 C17.78182813 54.44040669 14.73243796 54.29523526 10.765625 54.2578125 C8.95771484 54.24814453 8.95771484 54.24814453 7.11328125 54.23828125 C5.85902344 54.22152344 4.60476563 54.20476562 3.3125 54.1875 C2.04277344 54.17847656 0.77304687 54.16945312 -0.53515625 54.16015625 C-3.66946093 54.13659005 -6.80338541 54.10368832 -9.9375 54.0625 C-9.9375 50.4325 -9.9375 46.8025 -9.9375 43.0625 C-3.9975 43.0625 1.9425 43.0625 8.0625 43.0625 C8.0625 41.7425 8.0625 40.4225 8.0625 39.0625 C7.1034375 39.5884375 7.1034375 39.5884375 6.125 40.125 C1.89547584 41.41975229 -1.6675014 41.14547066 -5.9375 40.0625 C-9.39871174 37.89924266 -10.64491598 36.94025207 -11.9375 33.0625 C-12.22438778 28.79637981 -12.2152088 24.52467859 -12.25 20.25 C-12.27900391 19.07373047 -12.30800781 17.89746094 -12.33789062 16.68554688 C-12.41770017 5.82531019 -12.41770017 5.82531019 -7.9375 1.0625 C-5.21524209 -0.29862895 -3.03504415 -0.03310957 0 0 Z M5.0625 11.0625 C3.64475162 12.25102855 3.64475162 12.25102855 3.96484375 15.66015625 C3.9715178 17.14846867 3.98347817 18.63676432 4 20.125 C4.00451172 20.88361328 4.00902344 21.64222656 4.01367188 22.42382812 C4.0254932 24.30341871 4.04342922 26.18296899 4.0625 28.0625 C5.3825 28.0625 6.7025 28.0625 8.0625 28.0625 C9.92690575 26.19809425 9.23624427 23.1800383 9.25 20.6875 C9.26417969 19.52476563 9.27835937 18.36203125 9.29296875 17.1640625 C9.30549973 13.89452211 9.30549973 13.89452211 7.0625 11.0625 C6.4025 11.0625 5.7425 11.0625 5.0625 11.0625 Z " fill="#7A01F4" transform="translate(464.9375,21.9375)"/>
<path d="M0 0 C4.95 0 9.9 0 15 0 C15 19.14 15 38.28 15 58 C9 58 3 58 -3 58 C-3.84433594 58.02320313 -4.68867188 58.04640625 -5.55859375 58.0703125 C-6.50863281 58.08835938 -7.45867187 58.10640625 -8.4375 58.125 C-9.38496094 58.14820313 -10.33242188 58.17140625 -11.30859375 58.1953125 C-14.12860017 57.99066762 -15.65810321 57.55440182 -18 56 C-20.38184782 52.42722826 -20.33900573 49.79669769 -20.37109375 45.6640625 C-20.38012222 44.94769623 -20.3891507 44.23132996 -20.39845276 43.49325562 C-20.41294861 41.97861912 -20.42184036 40.4639201 -20.42553711 38.94921875 C-20.43742515 36.63954317 -20.48660065 34.33254848 -20.53710938 32.0234375 C-20.54657534 30.54949217 -20.55380955 29.07553047 -20.55859375 27.6015625 C-20.57812607 26.91494537 -20.59765839 26.22832825 -20.61778259 25.52090454 C-20.58202339 21.69286269 -20.07544862 20.09532516 -17.67114258 17.05761719 C-14.30019247 14.46092881 -12.45466076 14.44425666 -8.25 14.625 C-7.10015625 14.65851562 -5.9503125 14.69203125 -4.765625 14.7265625 C-2 15 -2 15 -1 16 C-0.67 10.72 -0.34 5.44 0 0 Z M-4 26 C-5.20495909 26.98407311 -5.20495909 26.98407311 -5.11352539 28.85766602 C-5.10828857 29.64842529 -5.10305176 30.43918457 -5.09765625 31.25390625 C-5.09443359 32.10791016 -5.09121094 32.96191406 -5.08789062 33.84179688 C-5.07951172 34.73962891 -5.07113281 35.63746094 -5.0625 36.5625 C-5.05798828 37.46419922 -5.05347656 38.36589844 -5.04882812 39.29492188 C-5.03700225 41.53001314 -5.0205222 43.76497437 -5 46 C-3.35 45.67 -1.7 45.34 0 45 C0 39.39 0 33.78 0 28 C-1.32 27.34 -2.64 26.68 -4 26 Z " fill="#7A01F4" transform="translate(433,7)"/>
<path d="M0 0 C5.28 0 10.56 0 16 0 C17.22354709 4.2824148 18.30298518 8.17348316 19.0703125 12.49609375 C19.24433594 13.46611328 19.41835937 14.43613281 19.59765625 15.43554688 C19.77167969 16.42619141 19.94570312 17.41683594 20.125 18.4375 C20.30675781 19.45521484 20.48851562 20.47292969 20.67578125 21.52148438 C21.12041404 24.01376818 21.56173154 26.50659057 22 29 C23.88866313 22.9341585 25.02671213 16.81460541 26.125 10.5625 C26.30675781 9.54478516 26.48851562 8.52707031 26.67578125 7.47851562 C27.1204108 4.98624998 27.56065049 2.49320185 28 0 C33.61 0 39.22 0 45 0 C43.32925593 11.79585572 40.30737922 23.21646813 37.375 34.75 C36.85372698 36.81499323 36.33288996 38.88009656 35.8125 40.9453125 C34.54749419 45.96504893 33.27356783 50.98239831 32 56 C25.73 56 19.46 56 13 56 C11.14258756 48.66914876 9.2913352 41.33678023 7.44580078 34.00292969 C6.81696381 31.50770977 6.18643884 29.01291462 5.55419922 26.51855469 C4.64628207 22.93534634 3.74442525 19.35065955 2.84375 15.765625 C2.55939087 14.64883362 2.27503174 13.53204224 1.98205566 12.38140869 C1.72178589 11.34063171 1.46151611 10.29985474 1.19335938 9.22753906 C0.96241577 8.31264709 0.73147217 7.39775513 0.49353027 6.45513916 C0 4 0 4 0 0 Z " fill="#7A01F4" transform="translate(165,9)"/>
<path d="M0 0 C11.22 0 22.44 0 34 0 C34 3.96 34 7.92 34 12 C28.06 12 22.12 12 16 12 C16 15.3 16 18.6 16 22 C20.95 22 25.9 22 31 22 C31 25.96 31 29.92 31 34 C26.05 34 21.1 34 16 34 C16 37.3 16 40.6 16 44 C22.27 44 28.54 44 35 44 C35 47.96 35 51.92 35 56 C23.45 56 11.9 56 0 56 C0 37.52 0 19.04 0 0 Z " fill="#7A01F4" transform="translate(375,9)"/>
<path d="M0 0 C1.5778125 0.02707031 1.5778125 0.02707031 3.1875 0.0546875 C4.5796875 0.08949219 4.5796875 0.08949219 6 0.125 C6.99 0.125 7.98 0.125 9 0.125 C13.95 0.125 18.9 0.125 24 0.125 C24 14.315 24 28.505 24 43.125 C18 43.125 12 43.125 6 43.125 C4.75089844 43.17720703 4.75089844 43.17720703 3.4765625 43.23046875 C-6.37734293 43.51393726 -6.37734293 43.51393726 -10 40.125 C-12.9213582 34.22340352 -12.32953463 28.12999744 -12.3125 21.6875 C-12.32861328 20.47255859 -12.34472656 19.25761719 -12.36132812 18.00585938 C-12.36197266 16.82958984 -12.36261719 15.65332031 -12.36328125 14.44140625 C-12.36626221 13.37349854 -12.36924316 12.30559082 -12.37231445 11.20532227 C-11.93619472 7.5971107 -10.88653244 5.21886893 -9 2.125 C-5.50644723 -0.20403518 -4.11167639 -0.09069874 0 0 Z M5 11.125 C3.79504091 12.10907311 3.79504091 12.10907311 3.88647461 13.98266602 C3.89171143 14.77342529 3.89694824 15.56418457 3.90234375 16.37890625 C3.90556641 17.23291016 3.90878906 18.08691406 3.91210938 18.96679688 C3.92048828 19.86462891 3.92886719 20.76246094 3.9375 21.6875 C3.94201172 22.58919922 3.94652344 23.49089844 3.95117188 24.41992188 C3.96299775 26.65501314 3.9794778 28.88997437 4 31.125 C5.65 30.795 7.3 30.465 9 30.125 C9 24.515 9 18.905 9 13.125 C7.68 12.465 6.36 11.805 5 11.125 Z " fill="#7A01F4" transform="translate(324,21.875)"/>
<path d="M0 0 C1.09376953 -0.02900391 2.18753906 -0.05800781 3.31445312 -0.08789062 C11.40316916 -0.15196942 11.40316916 -0.15196942 15.38671875 2.20703125 C18.01831954 5.28389205 18.31024094 6.91943193 18.28515625 10.8828125 C18.28265869 11.68992676 18.28016113 12.49704102 18.27758789 13.32861328 C18.26848389 14.3545459 18.25937988 15.38047852 18.25 16.4375 C18.229375 19.69625 18.20875 22.955 18.1875 26.3125 C11.2575 26.3125 4.3275 26.3125 -2.8125 26.3125 C-2.8125 28.2925 -2.8125 30.2725 -2.8125 32.3125 C-0.8325 31.9825 1.1475 31.6525 3.1875 31.3125 C3.5175 30.3225 3.8475 29.3325 4.1875 28.3125 C8.8075 28.3125 13.4275 28.3125 18.1875 28.3125 C18.67649297 36.50313232 18.67649297 36.50313232 16.375 40.3125 C11.8252865 44.47223806 6.13257047 43.53253825 0.3125 43.5625 C-1.17830078 43.5934375 -1.17830078 43.5934375 -2.69921875 43.625 C-12.07113505 43.67518429 -12.07113505 43.67518429 -15.8125 40.3125 C-19.07408083 35.31512671 -18.18445853 29.21245355 -18.18310547 23.46801758 C-18.18747953 21.3847481 -18.22382556 19.30359824 -18.26171875 17.22070312 C-18.26558594 15.90134766 -18.26945312 14.58199219 -18.2734375 13.22265625 C-18.28576416 11.41486694 -18.28576416 11.41486694 -18.29833984 9.57055664 C-17.72163568 5.70316115 -16.52682381 4.07139866 -13.8125 1.3125 C-9.72184806 -0.73282597 -4.49610174 0.0393245 0 0 Z M-2.8125 11.3125 C-2.8125 13.2925 -2.8125 15.2725 -2.8125 17.3125 C-0.5025 17.3125 1.8075 17.3125 4.1875 17.3125 C4.230221 15.64638095 4.22813832 13.97867115 4.1875 12.3125 C3.06215895 10.95631501 3.06215895 10.95631501 0.125 11.25 C-0.844375 11.270625 -1.81375 11.29125 -2.8125 11.3125 Z " fill="#7A01F4" transform="translate(511.8125,21.6875)"/>
<path d="M0 0 C4.95 0 9.9 0 15 0 C15 10.23 15 20.46 15 31 C16.32 30.67 17.64 30.34 19 30 C19.33 20.1 19.66 10.2 20 0 C24.95 0 29.9 0 35 0 C35 14.19 35 28.38 35 43 C29 43 23 43 17 43 C16.16726563 43.04640625 15.33453125 43.0928125 14.4765625 43.140625 C6.72961373 43.43776824 6.72961373 43.43776824 2.875 41.125 C-0.58853532 37.19965997 -0.12999316 33.71694409 -0.09765625 28.7109375 C-0.0962413 27.89251373 -0.09482635 27.07408997 -0.09336853 26.23086548 C-0.0877629 23.61220675 -0.07520948 20.99363296 -0.0625 18.375 C-0.05748572 16.60156373 -0.05292269 14.82812613 -0.04882812 13.0546875 C-0.03779164 8.70309218 -0.02052325 4.3515605 0 0 Z " fill="#7A01F4" transform="translate(272,22)"/>
<path d="M0 0 C0.99837891 -0.03738281 1.99675781 -0.07476563 3.02539062 -0.11328125 C10.43274502 -0.20211028 10.43274502 -0.20211028 14.32421875 2.7734375 C17.56534589 7.29878483 17.27581897 9.89922374 17.1875 15.375 C12.2375 15.375 7.2875 15.375 2.1875 15.375 C2.1875 13.725 2.1875 12.075 2.1875 10.375 C0.8675 10.375 -0.4525 10.375 -1.8125 10.375 C-1.8125 12.355 -1.8125 14.335 -1.8125 16.375 C-1.24402344 16.35179687 -0.67554688 16.32859375 -0.08984375 16.3046875 C5.01975009 16.18526461 9.36657392 16.44662957 14.1875 18.375 C17.83714076 22.02464076 18.13577217 25.28871564 18.375 30.3125 C18.31120406 34.60277688 17.51967442 37.75322245 14.75 41.125 C10.663839 44.3939288 5.26076119 43.59684489 0.3125 43.625 C-0.58597656 43.645625 -1.48445312 43.66625 -2.41015625 43.6875 C-7.34379731 43.71665002 -10.85139805 43.6772413 -14.8125 40.375 C-17.31142551 36.09112769 -16.8125 33.73846651 -16.8125 28.375 C-11.8625 28.375 -6.9125 28.375 -1.8125 28.375 C-1.8125 29.695 -1.8125 31.015 -1.8125 32.375 C-0.4925 32.045 0.8275 31.715 2.1875 31.375 C2.1875 30.385 2.1875 29.395 2.1875 28.375 C1.22328125 28.27703125 0.2590625 28.1790625 -0.734375 28.078125 C-1.99765625 27.92859375 -3.2609375 27.7790625 -4.5625 27.625 C-6.44195312 27.41617188 -6.44195312 27.41617188 -8.359375 27.203125 C-12.1375904 26.29703714 -13.4462463 25.38450714 -15.8125 22.375 C-17.27373786 19.45252427 -17.0602615 16.81646161 -17.125 13.5625 C-17.16238281 12.33917969 -17.19976562 11.11585937 -17.23828125 9.85546875 C-16.74230695 5.8012201 -15.66149719 4.23456861 -12.8125 1.375 C-8.95013565 -0.55618218 -4.24908819 0.05965535 0 0 Z " fill="#7A01F4" transform="translate(249.8125,21.625)"/>
<path d="M0 0 C1.0236264 0.00424484 1.0236264 0.00424484 2.06793213 0.00857544 C4.23817807 0.01973152 6.40800471 0.04482693 8.578125 0.0703125 C10.05337944 0.08034824 11.52864037 0.08947306 13.00390625 0.09765625 C16.61211442 0.11965563 20.22007875 0.15415367 23.828125 0.1953125 C22.88225687 4.54071045 20.81461922 8.10643737 18.640625 11.9453125 C18.20935303 12.71157959 17.77808105 13.47784668 17.33374023 14.26733398 C15.83836332 16.91372491 14.33308193 19.55435876 12.828125 22.1953125 C11.93963867 23.76659912 11.93963867 23.76659912 11.03320312 25.36962891 C9.16290687 28.67184033 7.2787195 31.9657503 5.390625 35.2578125 C4.78774658 36.32290039 4.18486816 37.38798828 3.5637207 38.48535156 C2.70653442 39.96793457 2.70653442 39.96793457 1.83203125 41.48046875 C1.32486572 42.36613525 0.8177002 43.25180176 0.29516602 44.16430664 C-1.171875 46.1953125 -1.171875 46.1953125 -4.171875 47.1953125 C-6.51095039 43.39853289 -8.81304287 39.58056948 -11.109375 35.7578125 C-11.76873047 34.68853516 -12.42808594 33.61925781 -13.10742188 32.51757812 C-17.10983087 25.80584612 -20.45688738 19.94894311 -18.66210938 11.9128418 C-17.27065584 7.3215973 -15.28583722 4.80416659 -11.171875 2.1953125 C-10.60694336 1.8358252 -10.04201172 1.47633789 -9.45996094 1.10595703 C-6.24626401 -0.17307514 -3.45157787 -0.02829162 0 0 Z " fill="#FF773E" transform="translate(111.171875,-0.1953125)"/>
<path d="M0 0 C1.82519531 0.20678711 1.82519531 0.20678711 4 1 C5.46386719 3.04125977 5.46386719 3.04125977 6.796875 5.69140625 C7.28027344 6.63564453 7.76367188 7.57988281 8.26171875 8.55273438 C8.99841797 10.04256836 8.99841797 10.04256836 9.75 11.5625 C10.25660156 12.55958984 10.76320312 13.55667969 11.28515625 14.58398438 C12.53588413 17.05004219 13.77343055 19.52186137 15 22 C12.86188031 24.38293939 11.10965714 25.55628602 8.09375 26.60546875 C6.97806641 26.99702148 6.97806641 26.99702148 5.83984375 27.39648438 C4.68162109 27.78803711 4.68162109 27.78803711 3.5 28.1875 C2.72785156 28.46013672 1.95570312 28.73277344 1.16015625 29.01367188 C-4.58476269 31 -4.58476269 31 -8 31 C-7.34 32.65 -6.68 34.3 -6 36 C-8.90271361 37.59124662 -11.51997963 38.44614993 -14.765625 39.0703125 C-15.65507813 39.24433594 -16.54453125 39.41835938 -17.4609375 39.59765625 C-18.38132812 39.77167969 -19.30171875 39.94570313 -20.25 40.125 C-21.18585937 40.30675781 -22.12171875 40.48851562 -23.0859375 40.67578125 C-25.38966885 41.12242304 -27.6943043 41.5636328 -30 42 C-31.27118733 39.93771746 -32.54195965 37.87518109 -33.8125 35.8125 C-34.16892578 35.23435547 -34.52535156 34.65621094 -34.89257812 34.06054688 C-35.93055175 32.37503007 -36.96531853 30.68753975 -38 29 C-38.58136719 28.07574219 -39.16273437 27.15148437 -39.76171875 26.19921875 C-41 24 -41 24 -41 22 C-40.34 22 -39.68 22 -39 22 C-39 22.66 -39 23.32 -39 24 C-37.13794922 23.58427734 -37.13794922 23.58427734 -35.23828125 23.16015625 C-33.59636049 22.79424248 -31.95443305 22.42835864 -30.3125 22.0625 C-29.49587891 21.88009766 -28.67925781 21.69769531 -27.83789062 21.50976562 C-27.04189453 21.33251953 -26.24589844 21.15527344 -25.42578125 20.97265625 C-24.65661377 20.79935791 -23.88744629 20.62605957 -23.0949707 20.44750977 C-21.40747357 20.08704103 -19.70488176 19.79763778 -18 19.53125 C-17.34 19.3559375 -16.68 19.180625 -16 19 C-14.62533375 16.52363988 -14.62533375 16.52363988 -14 14 C-13.34 14 -12.68 14 -12 14 C-12 13.34 -12 12.68 -12 12 C-10.390625 10.44921875 -10.390625 10.44921875 -8.25 8.6875 C-5.09829823 6.01637687 -2.44230671 3.35817172 0 0 Z " fill="#5543F8" transform="translate(57,7)"/>
<path d="M0 0 C4.95 0 9.9 0 15 0 C15 19.14 15 38.28 15 58 C10.05 58 5.1 58 0 58 C0 38.86 0 19.72 0 0 Z " fill="#7A01F4" transform="translate(354,7)"/>
<path d="M0 0 C4.95 0 9.9 0 15 0 C15 14.19 15 28.38 15 43 C10.05 43 5.1 43 0 43 C0 28.81 0 14.62 0 0 Z " fill="#7A01F4" transform="translate(213,22)"/>
<path d="M0 0 C17.16 0 34.32 0 52 0 C49.45122753 3.82315871 47.55695803 4.11321771 43.25 5.5625 C42.03828125 5.97628906 40.8265625 6.39007813 39.578125 6.81640625 C37.31780325 7.5640891 35.05739767 8.31151858 32.796875 9.05859375 C31.16810417 9.60682527 29.54462863 10.17248915 27.9375 10.78125 C21.13930848 13.30315976 14.17043172 14.13302035 7 15 C5.82539808 13.06730041 4.66055528 11.12866687 3.5 9.1875 C2.8503125 8.10855469 2.200625 7.02960937 1.53125 5.91796875 C0 3 0 3 0 0 Z " fill="#397EFB" transform="translate(0,0)"/>
<path d="M0 0 C2.64233769 2.19257809 4.46669809 3.93339618 6 7 C6 9.31 6 11.62 6 14 C0.06 14.33 -5.88 14.66 -12 15 C-9.61050787 19.12082838 -9.61050787 19.12082838 -6.95703125 19.390625 C-6.24933594 19.34421875 -5.54164063 19.2978125 -4.8125 19.25 C-2.9253125 19.12625 -2.9253125 19.12625 -1 19 C-0.67 18.01 -0.34 17.02 0 16 C1.65 16 3.3 16 5 16 C4.68919312 18.87496365 4.38759275 20.56589612 2.4375 22.75 C-1.84437806 24.9458349 -6.07846311 25.48038422 -10.75 24.3125 C-14.48674413 22.13273259 -16.62361069 20.12916794 -18 16 C-18.36194996 10.48026305 -18.35400592 6.6523308 -15 2 C-10.01013906 -1.03305273 -5.51678929 -1.93145453 0 0 Z M-10.8125 5.3125 C-12.19455846 7.10476225 -12.19455846 7.10476225 -13 10 C-8.38 10 -3.76 10 1 10 C-0.33563616 5.05536365 -0.33563616 5.05536365 -3 4 C-7.17316574 3.57157247 -7.17316574 3.57157247 -10.8125 5.3125 Z " fill="#FF773E" transform="translate(479,85)"/>
<path d="M0 0 C2.64233769 2.19257809 4.46669809 3.93339618 6 7 C6 9.31 6 11.62 6 14 C0.06 14.33 -5.88 14.66 -12 15 C-9.5214375 19.28397535 -9.5214375 19.28397535 -6 19.4375 C-3.00744044 19.30627299 -3.00744044 19.30627299 -1.5 17.5 C0 16 0 16 3.1875 15.8125 C4.5796875 15.9053125 4.5796875 15.9053125 6 16 C4.4862982 20.00685771 3.48202503 21.71263892 -0.25 23.9375 C-4.49874832 25.14131202 -6.76716584 25.23136994 -11 24 C-14.4092638 21.87016778 -16.69649215 19.91052355 -18 16 C-18.36194996 10.48026305 -18.35400592 6.6523308 -15 2 C-10.01013906 -1.03305273 -5.51678929 -1.93145453 0 0 Z M-11.375 6.4375 C-13.089257 8.63503326 -13.089257 8.63503326 -13 10 C-8.38 10 -3.76 10 1 10 C-0.33563616 5.05536365 -0.33563616 5.05536365 -3 4 C-7.12239733 3.462296 -8.40324904 3.38754506 -11.375 6.4375 Z " fill="#FF773E" transform="translate(239,85)"/>
<path d="M0 0 C1.65 0 3.3 0 5 0 C8.23283753 7.59186846 11.24225135 15.22327034 14 23 C14.23710693 22.37432129 14.47421387 21.74864258 14.71850586 21.10400391 C15.7904212 18.27725731 16.86394047 15.45112254 17.9375 12.625 C18.31068359 11.64015625 18.68386719 10.6553125 19.06835938 9.640625 C19.42607422 8.69960937 19.78378906 7.75859375 20.15234375 6.7890625 C20.48226318 5.91975098 20.81218262 5.05043945 21.15209961 4.15478516 C22 2 22 2 23 0 C24.65 0 26.3 0 28 0 C27.34977543 3.7400679 26.31046188 7.11935379 24.96875 10.66796875 C24.57042969 11.72564453 24.17210937 12.78332031 23.76171875 13.87304688 C23.13716797 15.51370117 23.13716797 15.51370117 22.5 17.1875 C22.08363281 18.29287109 21.66726562 19.39824219 21.23828125 20.53710938 C18.16171288 28.67657425 18.16171288 28.67657425 17 31 C15.02 31 13.04 31 11 31 C9.4268862 27.06987792 7.86050167 23.13716168 6.30029297 19.2019043 C5.76860679 17.86360574 5.23508993 16.52603297 4.69970703 15.18920898 C3.93039 13.26734371 3.16769846 11.34296284 2.40625 9.41796875 C1.94541016 8.26063232 1.48457031 7.1032959 1.00976562 5.91088867 C0 3 0 3 0 0 Z " fill="#FF773E" transform="translate(171,78)"/>
<path d="M0 0 C1.16015625 0.10054688 1.16015625 0.10054688 2.34375 0.203125 C4.91524463 0.85531567 5.90667861 1.6508623 7.5 3.75 C7.6875 6.4375 7.6875 6.4375 7.5 8.75 C5.85 8.75 4.2 8.75 2.5 8.75 C2.17 7.76 1.84 6.77 1.5 5.75 C-0.48 5.75 -2.46 5.75 -4.5 5.75 C-4.83 6.74 -5.16 7.73 -5.5 8.75 C-4.81292969 8.93175781 -4.12585938 9.11351563 -3.41796875 9.30078125 C-2.51691406 9.55214844 -1.61585938 9.80351563 -0.6875 10.0625 C0.20582031 10.30613281 1.09914063 10.54976562 2.01953125 10.80078125 C4.59124291 11.78491658 5.79631898 12.62039873 7.5 14.75 C8.4375 17.125 8.4375 17.125 8.5 19.75 C6.99793234 22.62352073 5.79290422 24.29981679 2.66015625 25.390625 C-0.97972172 26.03336737 -3.309984 25.80981985 -6.875 24.6875 C-10.06963234 22.32955709 -10.65198115 20.56608481 -11.5 16.75 C-9.85 16.75 -8.2 16.75 -6.5 16.75 C-6.17 17.74 -5.84 18.73 -5.5 19.75 C-3.19 19.75 -0.88 19.75 1.5 19.75 C1.5 18.76 1.5 17.77 1.5 16.75 C0.80132813 16.48445313 0.10265625 16.21890625 -0.6171875 15.9453125 C-1.52726563 15.59210938 -2.43734375 15.23890625 -3.375 14.875 C-4.27992188 14.52695313 -5.18484375 14.17890625 -6.1171875 13.8203125 C-8.5 12.75 -8.5 12.75 -10.5 10.75 C-11.06321839 4.5545977 -11.06321839 4.5545977 -9.1875 1.875 C-6.06311243 -0.20792505 -3.61333643 -0.36133364 0 0 Z " fill="#FF773E" transform="translate(522.5,84.25)"/>
<path d="M0 0 C0.77085937 0.04382813 1.54171875 0.08765625 2.3359375 0.1328125 C5.82966223 1.26559014 6.82299785 2.68276542 8.625 5.875 C9.09355548 9.16442082 9.00350054 12.37366868 8.875 15.6875 C8.85695313 16.57115234 8.83890625 17.45480469 8.8203125 18.36523438 C8.77338513 20.53562543 8.70164731 22.70545519 8.625 24.875 C6.975 24.875 5.325 24.875 3.625 24.875 C3.57601563 23.67101562 3.52703125 22.46703125 3.4765625 21.2265625 C3.40153657 19.65101802 3.32598867 18.07549834 3.25 16.5 C3.2190625 15.7059375 3.188125 14.911875 3.15625 14.09375 C3.10683579 9.50832625 3.10683579 9.50832625 0.625 5.875 C-2.375 5.45833333 -2.375 5.45833333 -5.375 5.875 C-7.85544315 9.59566472 -7.81881173 12.74040474 -8 17.0625 C-8.03867187 17.81208984 -8.07734375 18.56167969 -8.1171875 19.33398438 C-8.21128216 21.18059199 -8.29422319 23.0277619 -8.375 24.875 C-10.025 24.875 -11.675 24.875 -13.375 24.875 C-13.375 16.955 -13.375 9.035 -13.375 0.875 C-11.065 0.875 -8.755 0.875 -6.375 0.875 C-3.96572489 -0.32963755 -2.66888466 -0.20393471 0 0 Z " fill="#FF773E" transform="translate(283.375,84.125)"/>
<path d="M0 0 C1.65 0 3.3 0 5 0 C5.04898437 1.20398438 5.09796875 2.40796875 5.1484375 3.6484375 C5.22346343 5.22398198 5.29901133 6.79950166 5.375 8.375 C5.4059375 9.1690625 5.436875 9.963125 5.46875 10.78125 C5.51816421 15.36667375 5.51816421 15.36667375 8 19 C11 19.41666667 11 19.41666667 14 19 C16.48044315 15.27933528 16.44381173 12.13459526 16.625 7.8125 C16.66367187 7.06291016 16.70234375 6.31332031 16.7421875 5.54101562 C16.83628216 3.69440801 16.91922319 1.8472381 17 0 C18.65 0 20.3 0 22 0 C22 7.92 22 15.84 22 24 C19.69 24 17.38 24 15 24 C14.01 24.226875 13.02 24.45375 12 24.6875 C7.90045973 25.11453545 5.56172161 23.98634474 2 22 C0.17302275 19.17301675 -0.24292148 17.00450392 -0.1953125 13.671875 C-0.18886719 12.87265625 -0.18242187 12.0734375 -0.17578125 11.25 C-0.15902344 10.425 -0.14226562 9.6 -0.125 8.75 C-0.11597656 7.90953125 -0.10695313 7.0690625 -0.09765625 6.203125 C-0.07415817 4.13529396 -0.03828908 2.06761005 0 0 Z " fill="#FF773E" transform="translate(366,85)"/>
<path d="M0 0 C1.65 0 3.3 0 5 0 C5 1.98 5 3.96 5 6 C6.98 6 8.96 6 11 6 C11 7.32 11 8.64 11 10 C9.02 10 7.04 10 5 10 C5.33 14.95 5.66 19.9 6 25 C7.65 25.33 9.3 25.66 11 26 C11 27.32 11 28.64 11 30 C3.47017427 30.3703193 3.47017427 30.3703193 1.390625 28.73242188 C-0.30191723 26.62387558 -0.35318217 25.65774276 -0.29296875 22.98828125 C-0.28330078 22.23095703 -0.27363281 21.47363281 -0.26367188 20.69335938 C-0.23853516 19.90767578 -0.21339844 19.12199219 -0.1875 18.3125 C-0.16719727 17.11657227 -0.16719727 17.11657227 -0.14648438 15.89648438 C-0.11117089 13.93070033 -0.05736447 11.96526418 0 10 C-0.99 10 -1.98 10 -3 10 C-3 8.68 -3 7.36 -3 6 C-2.01 6 -1.02 6 0 6 C0 4.02 0 2.04 0 0 Z " fill="#FF773E" transform="translate(325,79)"/>
<path d="M0 0 C5.28 0 10.56 0 16 0 C16 3.63 16 7.26 16 11 C10.72 11 5.44 11 0 11 C0 7.37 0 3.74 0 0 Z " fill="#7A01F4" transform="translate(213,7)"/>
<path d="M0 0 C0 1.65 0 3.3 0 5 C-1.98 5.99 -3.96 6.98 -6 8 C-6.33 13.61 -6.66 19.22 -7 25 C-8.65 25 -10.3 25 -12 25 C-12 17.08 -12 9.16 -12 1 C-3 0 -3 0 0 0 Z " fill="#FF773E" transform="translate(431,84)"/>
</svg>
